<?xml version="1.0" encoding="utf-8"?>
<!-- Generator: Adobe Illustrator 18.0.0, SVG Export Plug-In . SVG Version: 6.00 Build 0)  -->
<!DOCTYPE svg PUBLIC "-//W3C//DTD SVG 1.1//EN" "http://www.w3.org/Graphics/SVG/1.1/DTD/svg11.dtd">
<svg version="1.1" id="Layer_1" xmlns="http://www.w3.org/2000/svg" xmlns:xlink="http://www.w3.org/1999/xlink" x="0px" y="0px"
	 width="400px" height="80px" viewBox="0 0 1697 317" enable-background="new 0 0 1697 317" xml:space="preserve">
<g>
	<path fill="#fff" d="M469.2,160.3c-9.8-1.2-18.3,1.1-26.9,3c-11,2.4-21.9,5.5-33.4,4.7c-2.3-0.2-4,0.5-5.7,2.1
		c-21,20.1-44.1,37.5-68.3,53.4c-2.9,1.9-14.4-2.5-15.7-5.8c-0.7-1.8,0.9-2.4,1.8-3.2c8.5-7.9,17.9-14.8,27.5-21.3
		c9.6-6.6,19.4-12.9,29.8-19.9c-13.6-2.2-26.4-0.5-39.2,0.6c-4.8,0.4-9.6,0.4-14.4,0.5c-11.5,0.1-23,3.2-34.5,0.7
		c-1.6-0.3-3.3,0-5-0.2c-2.7-0.3-3.5,0.8-3.3,3.4c0.5,6.2-1.3,10.7-7.5,13.8c-12.9,6.6-24.4,15.5-35.8,24.5c-3,2.4-6.5,3.2-10.4,3.7
		c-6.6,0.9-12.3,4.8-18.7,6.8c-1.8,0.6-3.6,1-5.3,0.7c-2.7-0.5-5.9-1.4-6.8-4.1c-0.8-2.3,1.6-4.2,3.2-6c7.1-7.9,16.9-11.5,26.3-15.6
		c8.7-3.8,16.6-8.4,22.8-15.7c0.3-0.4,0.4-1.2,0.7-1.2c7.5-0.8,12-7.6,18.8-9.7c-8.3-3.2-17.1-2.8-25.8-2.5
		c-12.1,0.4-23.7-2.8-35.5-4.6c-8-1.2-16-2.9-24.2-1.4c-1.4,0.2-2.9,0.8-4,1.7c-9.8,9.1-22.6,11.9-34.6,16.1
		c-11.4,4-23.3,5.7-35.1,8c-2.6,0.5-5.4,0.7-7.8,0.7c-9.9-0.2-19.7,3-29.6,0.6c-2.5-0.6-5.3-0.2-8-0.1c-3,0.1-3.3-0.9-2-3.5
		c2.5-5.3,6.9-8.7,11.8-11.3c10-5.3,21.1-7.4,32.2-9.1c15.1-2.4,30.3-4.3,45.1-8.1c1.4-0.4,2.6-1.3,4.3-2.2
		c-15.3-8.6-30-17.1-43.2-27.8c-10.5-8.5-21.2-16.8-27.3-29.5c-2.9-6.1-4-12.4-3.7-19c0.1-3.5,4.7-7,9.2-7.4c1.5-0.1,3,0,4.3,0
		c0.4,0.9,0.4,1.6-0.1,2.1c-8.7,7.7-3,15,1.1,21.7c10.4,16.7,25,28.9,42.2,38.1c8.6,4.6,17.4,8.7,27.1,11.8
		c0.7-8.4-4.3-14.1-8.7-19.9c-3.5-4.7-7.6-9-10.1-14.4c-0.8-1.8-2.2-3.8-1.9-5.4c1.9-11.3-6.6-18.1-11.2-26.5
		c-3.4-6.1-5.9-12.4-2.5-19.5c1-2.1,1.8-2.3,3.4-0.6c5.7,5.7,10,12.5,14,19.4c11.4,19.8,19.4,41.2,30.1,61.3
		c1.8,3.3,3.6,6.6,5.4,9.8c1.8,3.1,4.4,4.6,8.1,5.2c15.5,2.7,31.2,4,46.9,5.1c8.8,0.6,17.7,0.8,26.4,2.7c0.9,0.2,2-0.1,3.2-0.2
		c-4.6-12.2-11.9-22.5-19.5-32.7c-8.5-11.5-16.8-23.1-20.8-37.3c-0.6-2.2-0.6-4.4-1.5-6.6c-1.1-2.4,1.7-2.7,3.3-3.1
		c10-2.3,16.1,3.8,21.3,10.6c8.2,10.8,14.1,23,20,35.1c2.6,5.3,6.7,9.6,8.2,15.4c0.1,0.5,0.6,0.8,0.7,1.3c0.3,3.7,0.5,8.1,3.3,10.3
		c4.3,3.3,9.7,5.2,15.2,6.2c11.9,2.1,23.7,1.2,35.6,0.2c15.4-1.4,30.7-4.4,47.7-2.8c-8.4-8.5-12.8-18.1-17.2-27.6
		c-4.2-9.1-7.3-18.8-12.7-27.3c-2.6-4.1-5-8.5-9.6-10.9c-3.8-1.9-1.3-4.9-1.1-7.4c0.6-8.7,1.4-9,9.8-6.8c13.7,3.6,20.3,14,25.1,26
		c5.2,13.1,8,27,14,39.8c1.8,3.9,4.9,6.9,7.4,10.3c0.7,1,2.5,1.6,4.4,1.2c18.2-3.6,36.3-7.7,54.7-9.8c1.8-0.2,3.3-1.5,5.7-0.8
		c-4.5-12.8-11.8-23.4-18.1-34.5c-5.6-9.9-10.8-20-13.9-31.1c-0.5-1.6-0.7-3.2,1.5-4c0.4-0.1,0.6-0.8,1-1c2-1.4-0.4-5.7,3.4-5.5
		c5,0.2,10,1.2,14.1,4.6c9.7,8.1,13.2,19.5,16.8,30.9c3.4,10.5,5.5,21.3,9.9,31.5c1,2.4,1.4,2.9,4.1,2.1c3-0.9,6.4-2.5,9.3,1.3
		c1.4,1.9,4.2-0.3,6-0.8c17.4-4.9,35-8.7,53-10.9c2.9-0.4,5.8-0.9,8.8-0.9c1.6,0,3.1-0.6,3.7-1.8c0.6-1.2-1.1-1.8-1.8-2.7
		c-13.5-16.7-26.7-33.8-33.8-54.5c-0.8-2.2-3.5-5.1-1.3-7.1c2.8-2.5,6-5,10.3-5c7.8,0.1,11.5,5.6,14.6,11.5
		c5.9,11.2,9.6,23.4,14.3,35.1c2.4,6.2,4.9,12.4,9,17.7c1.4,1.9,3,3,5.4,2.6c12.2-2,24.4-4.5,36.7-5.7c7-0.7,14.1-2.3,22-0.9
		c-4.1-7.3-8.2-13.7-11.6-20.5c-4.1-8.2-6.3-16.8-3.5-26c1.2-4.2,3.1-9.1,7.4-9.5c4.4-0.3,8,3.1,10.9,7.1c5.5,7.9,6.2,17,7.7,25.9
		c1,6.1,1.6,12.3,2.7,18.4c0.7,4,2.8,3.6,5.1,3.1c10.7-2.2,21.3,0.3,31.9,0.9c8.7,0.5,17.2,2.2,25.8,3.3c4.3,0.5,8.6,1.3,13.5,2.1
		c-5.1-10.2-10-19.9-13.5-30.1c-1.1-3.2-2.2-6.4-3.4-9.6c-1-2.7-0.7-4.9,0.8-7.7c2.1-4,4.2-2.7,6.4-0.9c4.6,3.8,7.9,8.8,10.7,14
		c5.8,10.6,9.7,22,12,33.8c0.8,4.1,2.8,6,6.8,6.3c24.3,2.1,45.7,12,66.2,24.4c1.5,0.9,3.2,1.6,5.5,2.7c-1.7-7.1-3.3-13.5-4.8-19.9
		c-1.1-4.7-1.1-9.5,0.5-14.1c1-2.8,2.4-3.8,6.1-3.3c10.1,1.4,11.1,9.3,12.6,16.4c1.7,7.8,2.5,15.8,3.1,23.8
		c0.6,8.4,7.1,12.8,11.4,19.2c1.4-3,3.7-4.6,5.6-6.6c6.3-6.8,6.3-15.4,7.2-23.7c0.9-8.9,1.5-17.9,6.9-25.6c2.5-3.6,6.8-3.5,10.3-3.9
		c2.2-0.3,3.1,3.5,3.9,6.1c2.5,8.2-1.4,15.3-2.9,22.9c-0.5,2.7-2,5.2-0.9,8.2c14.9-8.3,29.5-17.1,46.1-21.7c8-2.2,16-4.3,24.3-5
		c3-0.3,5.5-0.7,6.6-5.4c3.1-14.1,7.4-27.9,15.6-40.2c2.4-3.6,5.9-6.2,8.8-9.4c0.9-1,2.5-1.5,3-0.5c1.5,2.9,4.9,4.8,3.2,9.3
		c-5,13.5-9.9,27-17,40.2c7.6-1,14.9-1.5,21.9-3c6.8-1.4,13.6-2.3,20.4-2.6c9.8-0.4,19.7-3.1,29.6-0.4c2.7,0.7,3.8-0.6,4.4-3.7
		c2.6-12.6,2.2-25.7,6.8-37.9c2.1-5.5,5.7-9.5,10.7-12.3c3.1-1.7,5.2-1.2,7.4,1.9c5.4,7.6,6,15.5,3.4,24.2
		c-3.1,10.2-9.2,18.9-14.8,28.7c5.8,0.2,11.2,0.6,16.4,1c8.7,0.6,17.1,2.5,25.7,3.6c5.5,0.7,10.9,1.8,16.4,2.5
		c3.6,0.5,5.1-2.6,6.8-4.9c6.2-9.1,9-19.7,13.1-29.8c4-9.9,6.8-20.3,14.5-28.5c4.3-4.6,11.1-5,16.5-1.1c2.3,1.7,3.4,3.5,2.3,7.1
		c-5.1,16.5-14.6,30.4-24.6,44.1c-3.9,5.4-8.2,10.5-12.5,16c8.9,2.1,17.7,2.6,26.3,4c14.6,2.4,28.9,6.3,43.3,9.6
		c0.9,0.2,2.2,1.1,2.7,0.3c2.6-4.4,6.5-2.5,9.5-1.5c3,1.1,3.3-0.5,4-2.2c4.2-10.5,6.5-21.7,10-32.5c3-8.9,6-17.7,11.9-25.4
		c4.6-6,10.7-8,17.6-9.1c1.5-0.2,2.5,0.3,2.9,1.9c0.1,0.3,0.3,0.6,0.5,0.8c6.7,7.3,1.3,14.2-1.2,20.8c-5.1,13.4-13.9,25-20.3,37.7
		c-2.4,4.8-4.8,9.6-7.2,14.7c20.8,2.6,40.9,7.1,61.2,11c1.8,0.3,2.7-0.4,3.9-1.5c6.2-5.8,8.9-13.5,11.8-21.1
		c4.5-11.6,6.7-24.1,12.5-35.3c5.8-11.3,14.4-18.7,27.2-20.9c2.6-0.4,3.8,0.9,4.2,3c0.3,1.8,0.7,3.5,1,5.3c0.6,3.1,0.8,5.7-2.7,8.4
		c-8.3,6.3-12.2,15.9-16.2,25.3c-5.7,13.4-11,27.1-21.2,38.9c8.6,0.3,16.5,0,24.3,1c13.3,1.7,26.7,3.5,40.1,3.8
		c11.2,0.2,22.5-1.1,32.6-7.1c2.4-1.4,2.7-4.1,3.1-6.4c0.9-4.5,2.3-8.6,4.7-12.6c8.2-13.7,14.3-28.5,23.4-41.6
		c3.4-4.9,7.2-9.6,13.1-12.1c3.5-1.5,6.9-1.3,10.3-0.5c3.7,0.8,2.7,4,2.1,6.4c-2.4,10.1-7,19.2-12.7,27.8
		c-9.2,14-20.6,26.5-27.2,42.2c-0.4,1-0.9,2.1-1.5,3.4c9.3-1,18.3-1.8,27.2-2.8c5.1-0.6,10.2-0.7,15.2-1c12-0.8,23.8-2.4,35.6-4.2
		c6.8-1,7.9-7.2,10.5-11.6c10.6-18,17.6-37.7,27.2-56.1c5-9.7,11.1-18.8,17.7-27.4c2.6-3.4,4.2-1.2,5.3,1.3c2.9,7-0.6,13-3.6,18.9
		c-1.7,3.3-4.2,6.2-6.2,9.3c-3.1,4.9-5.5,9.8-5.3,16c0.2,7-5,11.8-8.8,17c-4,5.5-8.8,10.5-10.8,17.2c-0.5,1.5-0.6,3.6,0.2,4.8
		c1.2,1.9,3.1-0.1,4.4-0.5c19.7-7.5,38-17.3,52.7-32.9c7.5-8,13.6-17,17.8-27.3c1.2-2.9-0.7-3.5-1.9-4.8c-1.6-1.9-4.5-4.2-3-6.1
		c1.6-2,5.1-1.2,7.7,0.2c5.9,3.2,5.7,4.9,5.3,11.5c-1.3,19.7-15.1,30.4-28.5,41.5c-13.2,10.9-27.7,20-42.8,28
		c-0.9,0.5-1.9,0.9-1.9,2c0.1,1.5,1.5,0.8,2.3,1.1c10.6,4,21.8,4.9,32.9,6.9c16.3,2.8,33,3.9,47.7,12.6c5,3,8.9,7.1,11.1,12.9
		c-14.4,1.5-28.4,1.3-42.5-0.3c-14-1.6-27.6-4.3-41.1-8.2c-10.3-3-20.2-7.1-29.8-12c-1.8-0.9-3.5-1.8-4.8-3.4
		c-2.9-3.8-7.6-3.6-11.3-3.2c-10.8,1-21.7,2.6-32.4,4.8c-10.8,2.3-21.7,1.5-32.6,2c-4.5,0.2-9.1,0.8-13.5,2.2
		c6.7,2.9,11.6,8.6,18.8,10.8c2.9,0.9,4.2,5,7.1,7.1c9.5,6.9,20.7,10.2,30.8,15.8c5.3,2.9,10.2,6.3,13.8,11.4
		c1.5,2.1,1.6,3.3-0.7,5.2c-4.8,3.9-9.5,2.7-14.2,0.4c-6.2-3-12.3-6-19.4-6.1c-1.6,0-3.3-1.4-4.6-2.4c-10-7.8-20.3-15.3-31.1-22
		c-2.2-1.4-4.4-2.9-6.8-3.8c-4.8-1.7-6.2-5.1-6.1-9.8c0.1-7.2-0.9-8-7.8-6.7c-12.4,2.3-24.6-0.4-36.9-0.9c-6.1-0.3-12.2,0-18.3-1
		c-6-0.9-12.2,0.4-18.3-1c-5-1.2-10,1.2-15.8,0.9c9.3,6.3,18,12.2,26.8,17.9c10.8,7.1,20.9,15.1,30.9,23.2c2.9,2.3,2.8,4.2-0.5,5.9
		c-0.1,0.1-0.4,0-0.5,0.1c-6.6,5.1-12.1,4.5-19.2-0.6c-17.3-12.3-34.6-24.6-50.4-38.8c-3.9-3.5-7.9-7.1-11.6-10.8
		c-1.3-1.3-2.5-2-4.3-1.9c-15.1,1.1-29.4-3.9-44-6.5c-5.4-1-10.9-2.1-17.6-1.2c6.3,4.6,11.9,8.6,17.5,12.7c11,8,21.6,16.4,28.9,28.3
		c2.9,4.6,4.5,9.7,6,14.8c0.6,2.2,0,3.3-2.9,2.5c-11.5-3.4-21.2-9.5-30.3-17.2c-13.8-11.9-24.5-26.3-34.9-41.1
		c-3-4.2-6.9-5.3-11.4-6.3c-15.9-3.4-31.7-7.1-47.5-10.5c-5-1.1-10-2.7-16.3-2.5c11.4,11.3,21.4,22.6,34.2,31
		c4.3,2.8,8.7,5.8,11.4,10.6c1.9,3.3,2.4,6.9,1.7,10.4c-0.8,4.7-4.8,6.4-9.6,5.1c-5.4-1.5-9.5-5.2-13.3-8.8
		c-8.2-7.8-15.7-16.4-24.2-23.8c-6.7-5.9-12.6-12.4-18.1-19.4c-0.5-0.6-1.4-1.2-1.5-1.9c-1.3-7-6.9-7.3-12.3-8.2
		c-9-1.4-17.9-3.2-27-4.5c-4.4-0.6-9-0.6-13.4-0.4c-2.8,0.1-2.1,1.6-0.7,3.2c5.8,6.3,11.5,12.7,17.2,19.1c1.5,1.7,2.9,3.5,4.3,5.3
		c4.1,5.1,4.1,6.9-0.2,11.8c-1.2,1.4-2.3,1.4-4.3,1c-10.3-2.4-16.8-9.6-22.7-17.5c-5-6.8-8.7-14.5-11.7-22.4
		c-0.7-1.8-1.2-2.5-3.3-2.6c-22.1-0.4-44,1.2-65.7,6c-1.4,0.3-2.5,1.6-4.1,1.4c8.8,3.2,18,4.7,26.1,9.4c8.3,4.9,10.8,11,7.7,19.7
		c-1,2.7-2.5,3-4.5,2.3c-16.5-5.2-31.7-12.7-44.2-25c-2.8-2.8-4.6-3.8-9.1-2.1c-12.5,4.6-25.1,8.7-37.5,13.4
		c-8.7,3.3-17.3,7.1-26.2,13c6.9,0,12.7,0.4,18.4-0.1c5.2-0.5,7,1.8,8.3,6.4c2.8,9.8-1.5,12.5-9.7,11.5c-8.8-1.1-17.6-3.1-26.3-5.2
		c-11.3-2.7-14.5,0.3-20.5,8.1c-1.6,2,0.3,2.6,1.1,3.6c8.5,10.7,16.6,21.7,20.4,35.2c1.3,4.7,0.1,9.2-0.2,14.4
		c-9.5-14.2-19-28.3-28.6-42.7c-8.5,11.2-15.6,23.4-23.5,35c-1.3,1.9-2.7,3.7-3.9,5.6c-0.5,0.9-0.8,2-2,1.6c-1-0.4-1.1-1.5-1.1-2.5
		c-0.2-7,1.7-13.5,4.5-19.9c4-9.2,9.8-17.3,16.1-25c2.6-3.2,2.3-5.3-0.2-8.4c-4.9-5.9-10.5-7-17.8-5.1c-8.9,2.3-18.1,3.9-27.3,5.3
		c-3.9,0.6-7.9-0.2-10-4.3c-1.2-2.4,2.2-12.4,4.4-13.4c1-0.4,2.3-0.2,3.5-0.2c6.3,0,12.7,0,19.7,0c-7-5.6-14.9-8.7-22.5-11.7
		c-13.8-5.5-28-10.2-42-15.2c-2.8-1-4.6-1-7.3,1.9c-5.1,5.4-11.1,10.1-17.7,13.9c-8.3,4.7-17.1,8.6-26.2,11.6
		c-3.5,1.2-4.9,0.4-6.1-3c-4-10.9,2.9-17.2,12.6-21.3c7-2.9,14.5-4.6,22-6.9c-14-3.4-27.8-5.7-42-6.6c-8.8-0.6-17.5-0.3-26.3-0.8
		c-3-0.2-4.4,0.7-5.6,3.8c-5.4,13.9-12.9,26.4-25.4,35.3c-3.1,2.2-6.7,2.4-10,3.6c-1.3,0.5-3-0.3-3.6-2.4c-0.3-1.3-0.5-2.9-2.2-3.5
		c-1.8-0.7-1.1-1.5-0.3-2.9c2.2-4.1,5.3-7.5,8.2-10.9c5.1-5.9,10.6-11.4,15.9-17.1c0.8-0.8,2.4-1.6,1.9-2.6c-0.5-0.8-2-1.3-3.4-1.4
		c-8-0.4-15.8,0.7-23.5,2.4c-7.2,1.6-14.4,2.5-21.7,3.6c-1.7,0.3-2.9,0.4-3.9,2.2c-6.6,12.9-17.5,22.1-28,31.6
		c-4.4,4-8.5,8.2-12.4,12.9c-4.8,5.8-10.9,10.4-17.5,14.2c-2.7,1.5-6,2.1-8.8-0.2c-2.8-2.3-2.7-5.7-2.5-8.9
		c0.3-6.8,5.1-11.1,10-14.6c9.9-7.1,19.7-14.3,27.9-23.3c2.7-3,5.4-6.1,8.7-9.9c-7.3,0.4-13.5,1.9-19.8,3.3c-16,3.5-32,7.2-48,10.8
		c-2.3,0.5-4.2,1.7-5.6,3.7c-9.6,14-20,27.2-32.2,39c-10.4,10-22.1,17.6-36.6,21.3c-1-6.5,2.1-11.6,4.9-16.6
		c7.4-13,19-21.9,30.9-30.5C458.1,168.3,463.2,164.6,469.2,160.3z"/>
</g>
</svg>
